<?xml version="1.0" standalone="no"?>
<!DOCTYPE svg PUBLIC "-//W3C//DTD SVG 20010904//EN"
 "http://www.w3.org/TR/2001/REC-SVG-20010904/DTD/svg10.dtd">
<svg version="1.0" xmlns="http://www.w3.org/2000/svg"
 width="300.000000pt" height="300.000000pt" viewBox="0 0 300.000000 300.000000"
 preserveAspectRatio="xMidYMid meet">

<g transform="translate(0.000000,300.000000) scale(0.100000,-0.100000)"
fill="#000000" stroke="none">
<path d="M1330 2953 c-144 -15 -327 -71 -473 -144 -410 -204 -686 -561 -789
-1020 -20 -89 -23 -132 -23 -294 0 -204 8 -262 56 -427 83 -281 277 -552 529
-740 96 -72 279 -167 395 -206 436 -147 909 -84 1294 172 319 213 538 543 623
940 31 146 31 408 -1 556 -32 148 -67 248 -132 377 -215 425 -622 717 -1093
782 -72 10 -306 13 -386 4z m110 -83 c5 0 20 -16 34 -36 l24 -36 16 31 c29 55
81 67 121 26 30 -29 33 -84 7 -131 -21 -39 -140 -167 -151 -162 -4 2 -35 33
-69 69 -88 94 -111 158 -76 207 18 26 52 43 72 36 8 -2 18 -4 22 -4z m178
-385 c13 -5 16 -53 4 -71 -10 -16 -230 -24 -241 -10 -14 19 -19 65 -7 75 19
16 202 20 244 6z m850 -1 c42 -29 17 -124 -33 -124 -10 0 -4 -10 16 -28 41
-37 42 -77 4 -110 -46 -39 -100 -15 -114 49 l-7 34 -22 -42 c-12 -24 -26 -43
-31 -43 -16 0 -71 51 -71 66 0 7 17 22 38 33 l37 19 -28 7 c-31 8 -67 49 -67
75 0 10 9 29 21 44 30 38 79 36 113 -5 14 -17 26 -24 26 -17 0 25 40 58 68 58
15 0 38 -7 50 -16z m-1706 -52 c40 -35 29 -84 -24 -106 l-30 -13 37 -22 38
-22 -29 -30 -29 -30 -15 21 c-46 65 -45 64 -47 33 -1 -28 -34 -63 -59 -63 -7
0 -24 10 -38 23 -22 20 -25 32 -32 130 l-6 109 108 -7 c75 -5 114 -12 126 -23z
m1168 -22 c3 -3 30 -18 60 -34 30 -16 64 -37 76 -47 11 -11 26 -19 32 -19 17
0 15 -10 -8 -47 -24 -40 -36 -41 -97 -4 -26 16 -68 40 -93 53 -38 20 -45 28
-43 52 1 15 7 34 13 42 11 13 49 15 60 4z m-791 -32 c20 -35 9 -53 -51 -84
-29 -15 -73 -40 -97 -57 l-44 -30 -24 27 c-31 36 -29 48 10 76 45 34 170 100
182 96 6 -1 16 -14 24 -28z m1002 -95 c13 -16 12 -17 -3 -4 -10 7 -18 15 -18
17 0 8 8 3 21 -13z m179 -187 c0 -5 17 -34 37 -64 44 -68 86 -152 79 -160 -3
-3 -6 0 -6 5 0 7 -15 4 -37 -7 -21 -10 -41 -16 -46 -13 -4 2 -19 28 -34 56
-14 29 -39 71 -54 94 -16 23 -29 48 -29 55 0 12 29 36 58 48 8 4 -4 24 -34 60
l-46 55 56 -60 c31 -33 56 -64 56 -69z m-1566 -27 c32 -26 33 -36 0 -80 -14
-19 -39 -60 -55 -91 -16 -32 -36 -58 -44 -58 -26 0 -65 23 -65 38 0 32 110
212 130 212 4 0 19 -9 34 -21z m1730 -332 c4 -19 3 -26 -4 -22 -5 3 -10 18
-10 32 0 32 5 28 14 -10z m13 -79 c-3 -7 -5 -2 -5 12 0 14 2 19 5 13 2 -7 2
-19 0 -25z m298 -72 c91 -85 92 -71 -16 -167 l-69 -61 -75 69 c-41 37 -75 72
-75 78 0 10 140 155 150 155 3 0 41 -34 85 -74z m-2429 -13 c41 -36 74 -72 74
-78 0 -16 -137 -145 -153 -145 -6 1 -46 32 -87 70 l-75 69 75 75 c41 42 78 76
83 76 5 0 42 -30 83 -67z m2128 59 c3 -5 6 -38 7 -73 4 -94 -3 -227 -10 -204
-4 13 -16 21 -35 22 -57 4 -57 3 -50 125 3 62 7 119 10 126 4 13 70 17 78 4z
m-1887 -131 c1 -71 -2 -120 -9 -128 -16 -20 -66 -16 -72 5 -6 21 -11 141 -8
200 l2 43 43 -3 42 -3 2 -114z m10 -163 c-3 -7 -5 -2 -5 12 0 14 2 19 5 13 2
-7 2 -19 0 -25z m1772 -189 c17 -6 31 -17 31 -25 0 -23 -76 -167 -104 -197
-28 -30 -44 -28 -78 10 -16 17 -15 21 13 63 17 25 44 71 60 103 16 31 33 57
38 57 4 0 22 -5 40 -11z m-1692 -49 c14 -25 38 -66 54 -93 36 -58 36 -72 3
-94 -26 -17 -27 -17 -50 12 -27 34 -104 177 -104 194 0 13 38 31 59 28 7 -1
24 -22 38 -47z m128 -190 l20 -25 -22 19 c-13 11 -23 24 -23 29 0 6 1 8 3 6 1
-2 11 -15 22 -29z m-188 -132 c12 -13 23 -34 25 -48 3 -23 5 -22 26 18 12 23
25 42 29 42 11 0 73 -63 73 -74 0 -6 -17 -21 -38 -33 -32 -19 -34 -22 -14 -23
31 0 72 -43 72 -75 0 -35 -42 -75 -79 -75 -20 0 -37 9 -53 28 l-23 28 -20 -31
c-40 -59 -125 -38 -125 32 0 37 23 73 47 73 19 0 16 18 -5 25 -19 6 -42 44
-42 71 0 8 11 26 25 39 31 32 75 33 102 3z m1798 2 c13 -15 20 -47 27 -126 5
-58 8 -108 5 -110 -2 -3 -53 -2 -112 2 -115 8 -145 21 -145 64 0 31 46 73 73
66 21 -5 20 -4 -3 14 -14 11 -33 22 -42 26 -10 3 -18 10 -18 17 0 13 40 57 52
57 4 0 18 -19 30 -42 l22 -43 7 35 c12 58 68 80 104 40z m-1398 -47 c43 -25
88 -52 100 -60 19 -11 21 -16 11 -44 -13 -38 -30 -45 -70 -28 -43 18 -178 107
-178 117 0 13 40 62 50 62 5 0 44 -21 87 -47z m1047 25 c25 -36 19 -51 -31
-84 -61 -40 -148 -84 -166 -84 -14 0 -37 40 -37 65 0 8 26 28 58 44 31 16 73
41 92 55 44 31 65 32 84 4z m-466 -164 c9 -2 12 -17 10 -41 l-3 -38 -125 0
-125 0 -3 33 c-5 55 5 59 125 55 60 -3 114 -6 121 -9z m-40 -228 c97 -103 115
-172 56 -227 -20 -19 -28 -21 -56 -13 -19 6 -42 23 -55 42 l-21 33 -19 -31
c-44 -74 -143 -44 -143 44 0 23 8 53 18 68 30 47 127 157 138 157 6 1 43 -33
82 -73z"/>
</g>
</svg>
